<?xml version="1.0" encoding="utf-8"?>
<!-- Generator: Adobe Illustrator 16.0.4, SVG Export Plug-In . SVG Version: 6.00 Build 0)  -->
<!DOCTYPE svg PUBLIC "-//W3C//DTD SVG 1.1//EN" "http://www.w3.org/Graphics/SVG/1.1/DTD/svg11.dtd">
<svg version="1.1" id="Layer_1" xmlns="http://www.w3.org/2000/svg" xmlns:xlink="http://www.w3.org/1999/xlink" x="0px" y="0px"
	 width="50px" height="50px" viewBox="0 0 50 50" enable-background="new 0 0 50 50" xml:space="preserve">
<path d="M25.148,22.688c-0.125-0.219-0.239-0.489-0.311-0.794c-0.118-0.517-0.074-0.983,0.117-1.282
	c0.693-1.08,2.758-1.021,4.416-0.975c0.732,0.021,1.423,0.04,1.951-0.038c3.391-0.506,3.225-2.273,3.049-4.145
	c-0.064-0.689-0.139-1.47-0.072-2.312l-0.996-0.078c-0.072,0.927,0.004,1.754,0.072,2.483c0.18,1.906,0.254,2.695-2.199,3.062
	c-0.441,0.064-1.091,0.047-1.775,0.027c-1.908-0.054-4.287-0.121-5.285,1.434c-0.344,0.531-0.432,1.258-0.252,2.047
	c0.046,0.197,0.107,0.388,0.181,0.57H6.834v14.25h36.332v-14.25L25.148,22.688L25.148,22.688z M34.749,24.188h1.835v2.166h-1.835
	V24.188z M34.749,27.271h1.835v2.167h-1.835V27.271z M34.749,30.354h1.835v2.166h-1.835V30.354z M32.082,24.188h1.835v2.166h-1.835
	V24.188z M32.082,27.271h1.835v2.167h-1.835V27.271z M32.082,30.354h1.835v2.166h-1.835V30.354z M29.415,24.188h1.835v2.166h-1.835
	V24.188z M29.415,27.271h1.835v2.167h-1.835V27.271z M29.415,30.354h1.835v2.166h-1.835V30.354z M26.748,24.188h1.835v2.166h-1.835
	V24.188z M26.748,27.271h1.835v2.167h-1.835V27.271z M26.748,30.354h1.835v2.166h-1.835V30.354z M24.081,29.438v-2.167h1.835v2.167
	H24.081z M25.916,30.354v2.166h-1.835v-2.166H25.916z M24.081,26.354v-2.166h1.835v2.166H24.081z M21.414,24.188h1.835v2.166h-1.835
	V24.188z M21.414,27.271h1.835v2.167h-1.835V27.271z M21.414,30.354h1.835v2.166h-1.835V30.354z M18.747,24.188h1.835v2.166h-1.835
	V24.188z M18.747,27.271h1.835v2.167h-1.835V27.271z M18.747,30.354h1.835v2.166h-1.835V30.354z M16.08,24.188h1.835v2.166H16.08
	V24.188z M16.08,27.271h1.835v2.167H16.08V27.271z M16.08,30.354h1.835v2.166H16.08V30.354z M13.413,24.188h1.835v2.166h-1.835
	V24.188z M13.413,27.271h1.835v2.167h-1.835V27.271z M9.914,35.271H8.079v-2.167h1.835V35.271z M9.914,32.521H8.079v-2.166h1.835
	V32.521z M9.914,29.438H8.079v-2.167h1.835V29.438z M9.914,26.354H8.079v-2.166h1.835V26.354z M12.581,35.271h-1.835v-2.167h1.835
	V35.271z M12.581,32.521h-1.835v-2.166h1.835V32.521z M12.581,29.438h-1.835v-2.167h1.835V29.438z M12.581,26.354h-1.835v-2.166
	h1.835V26.354z M13.413,30.354h1.835v2.166h-1.835V30.354z M36.669,35.271H13.415v-2.167h23.254V35.271z M39.251,35.271h-1.835
	v-2.167h1.835V35.271z M39.251,32.521h-1.835v-2.166h1.835V32.521z M39.251,29.438h-1.835v-2.167h1.835V29.438z M39.251,26.354
	h-1.835v-2.166h1.835V26.354z M41.918,35.271h-1.835v-2.167h1.835V35.271z M41.918,32.521h-1.835v-2.166h1.835V32.521z
	 M41.918,29.438h-1.835v-2.167h1.835V29.438z M41.918,26.354h-1.835v-2.166h1.835V26.354z"/>
</svg>
